<svg width="10" height="18" viewBox="0 0 10 18" fill="none" xmlns="http://www.w3.org/2000/svg">
<path d="M0.115558 9.25913L9.28223 17.8841C9.40023 17.9947 9.58089 18.0306 9.73877 17.9728C9.89665 17.916 10 17.7779 10 17.6249L10 16.1249C10 16.0289 9.95931 15.9366 9.88607 15.867L2.65706 8.99985L9.88607 2.13266C9.95931 2.06308 10 1.9708 10 1.87485L10 0.374851C10 0.221775 9.89665 0.0837135 9.73877 0.0269509C9.68831 0.00864031 9.63542 -0.000148745 9.58333 -0.00014874C9.47184 -0.000148732 9.36279 0.0401345 9.28222 0.115574L0.115558 8.74057C-0.0382509 8.88559 -0.0382508 9.11411 0.115558 9.25913Z" fill="#F3F3F3"/>
</svg>
