<svg width="10" height="18" viewBox="0 0 10 18" fill="none" xmlns="http://www.w3.org/2000/svg">
<path d="M9.88464 8.74084L0.717974 0.115844C0.599973 0.00524786 0.419309 -0.0306408 0.261431 0.0272205C0.103553 0.0839832 0.000200452 0.222045 0.000200467 0.375121L0.000200613 1.87512C0.000200622 1.97107 0.0408911 2.06335 0.114133 2.13293L7.34314 9.00012L0.114135 15.8673C0.0408924 15.9369 0.000201988 16.0292 0.000201997 16.1251L0.000202143 17.6251C0.000202157 17.7782 0.103555 17.9163 0.261433 17.973C0.311889 17.9913 0.364797 18.0001 0.416869 18.0001C0.52836 18.0001 0.637409 17.9598 0.717976 17.8844L9.88464 9.2594C10.0385 9.11438 10.0385 8.88586 9.88464 8.74084Z" fill="#F3F3F3"/>
</svg>
